<?xml version="1.0" encoding="UTF-8" standalone="no"?>
<!DOCTYPE svg PUBLIC "-//W3C//DTD SVG 1.1//EN" "http://www.w3.org/Graphics/SVG/1.1/DTD/svg11.dtd">
<svg width="100%" height="100%" viewBox="0 0 1080 1080" version="1.1" xmlns="http://www.w3.org/2000/svg" xmlns:xlink="http://www.w3.org/1999/xlink" xml:space="preserve" xmlns:serif="http://www.serif.com/" style="fill-rule:evenodd;clip-rule:evenodd;stroke-linejoin:round;stroke-miterlimit:2;">
    <g transform="matrix(1,0,0,1,-17.2634,4.31584)">
        <g id="Broken-Seal" serif:id="Broken Seal">
            <g id="Layer2">
                <path d="M499.471,265.906L500.886,328.132L501.593,374.094L508.664,478.746L449.974,493.595L384.213,569.963L300.067,622.289C300.067,622.289 315.624,510.701 350.625,506.391C385.627,502.08 499.471,265.906 499.471,265.906Z" style="fill:rgb(195,169,34);"/>
                <path d="M518.563,764.417L473.308,985.035L412.497,1021.1L425.225,888.161L518.563,764.417Z" style="fill:rgb(195,169,34);"/>
                <path d="M644.206,156.282L623.587,285.909L705.187,440.171L786.759,510.627L711.636,243.171L644.206,156.282Z" style="fill:rgb(195,169,34);"/>
                <g transform="matrix(1,0,0,1,17.2634,-4.31584)">
                    <path d="M737.14,478.774L779.679,672.012L839.416,600.057L776.059,438.044L737.14,478.774Z" style="fill:rgb(195,169,34);"/>
                </g>
                <path d="M811.31,591.775L727.786,882.312L777.256,907.965L826.131,826.054C824.914,763.715 863.57,694.949 811.31,591.775Z" style="fill:rgb(195,169,34);"/>
                <path d="M477.285,626.991L469.591,662.471L526.16,728.271L602.188,741.667L705.731,709.807L754.425,718.044L757.412,684.012L604.451,618.392L477.285,626.991Z" style="fill:rgb(195,169,34);"/>
            </g>
            <g transform="matrix(0.993353,0.115109,-0.115109,0.993353,-66.7818,29.8959)">
                <path d="M594.794,139.733L576.011,254.638L598.109,345.236L557.229,367.334L499.776,440.254L435.695,493.287L453.372,586.095L514.14,623.66L621.311,638.023L666.61,662.33L619.141,830.402L579.366,974.034L307.572,901.113L141.844,674.618L137.424,266.926L372.758,128.819L594.794,139.733Z" style="fill:none;"/>
                <clipPath id="_clip1">
                    <path d="M594.794,139.733L576.011,254.638L598.109,345.236L557.229,367.334L499.776,440.254L435.695,493.287L453.372,586.095L514.14,623.66L621.311,638.023L666.61,662.33L619.141,830.402L579.366,974.034L307.572,901.113L141.844,674.618L137.424,266.926L372.758,128.819L594.794,139.733Z"/>
                </clipPath>
                <g clip-path="url(#_clip1)">
                    <g id="Complete-Seal" serif:id="Complete Seal">
                        <g transform="matrix(1.25957,0,0,1.25957,-321.61,-297.711)">
                            <circle cx="698.623" cy="673.059" r="304.268" style="fill:rgb(216,194,80);"/>
                        </g>
                        <g transform="matrix(1.20426,0,0,1.20426,-299.795,-277.31)">
                            <circle cx="698.623" cy="673.059" r="304.268" style="fill:rgb(230,208,93);"/>
                        </g>
                        <g id="Layer1">
                            <path d="M216.542,676.08C238.985,705.428 282.143,760.671 301.133,798.65C320.123,836.63 321.849,860.799 365.008,869.43C408.166,878.062 491.031,878.062 537.642,881.515C584.253,884.967 722.36,876.336 753.435,855.619C784.509,834.903 872.552,743.407 858.741,681.259C844.931,619.111 879.458,567.32 898.447,543.152C917.437,518.983 917.437,451.656 893.268,427.487C869.1,403.318 822.488,349.801 824.215,303.19C825.941,256.579 753.435,201.336 724.087,197.883C694.739,194.431 623.959,204.789 601.517,182.346C579.074,159.904 494.483,171.988 472.041,180.62C449.598,189.252 370.187,272.116 320.123,277.295C270.059,282.474 211.363,344.622 226.9,391.234C242.437,437.845 235.532,456.835 219.995,498.267C204.458,539.699 194.1,646.732 216.542,676.08Z" style="fill:rgb(121,41,41);"/>
                            <g transform="matrix(1.02711,0,0,1.02711,-53.424,-69.3445)">
                                <circle cx="585.548" cy="599.689" r="270.604" style="fill:rgb(108,40,40);"/>
                            </g>
                            <g transform="matrix(1.23726,0,0,1.23726,-113.13,-162.298)">
                                <path d="M450.636,467.434C485.108,447.105 482.456,447.105 511.625,443.569C540.793,440.034 563.774,442.686 579.684,449.757C595.594,456.828 610.62,455.06 625.646,450.641C640.672,446.221 625.646,467.434 599.129,466.55C572.613,465.667 553.167,453.292 530.186,452.408C507.205,451.524 481.573,457.712 467.43,469.202C453.288,480.693 405.558,497.487 431.191,478.041C456.824,458.595 416.165,487.764 450.636,467.434Z" style="fill:rgb(121,41,41);"/>
                            </g>
                            <g transform="matrix(0.923412,0,0,0.991469,68.7778,-7.32002)">
                                <path d="M661.885,426.776C683.099,417.937 727.293,402.911 720.222,423.24C713.151,443.569 693.705,456.828 687.518,469.202C681.331,481.577 656.582,484.228 668.957,467.434C681.331,450.641 724.641,418.821 688.402,432.079C652.163,445.337 653.93,444.453 640.672,443.569C627.414,442.686 640.672,435.614 661.885,426.776Z" style="fill:rgb(121,41,41);"/>
                            </g>
                            <g transform="matrix(1.23726,0,0,1.23726,-130.628,-125.116)">
                                <path d="M647.743,471.854C638.904,492.183 623.878,507.209 630.949,528.423C638.02,549.636 638.904,558.475 624.762,578.804C610.62,599.133 600.013,614.16 577.032,614.16C554.051,614.16 572.613,612.392 593.826,595.598C615.039,578.804 620.343,574.385 619.459,549.636C618.575,524.887 607.084,520.468 617.691,498.37C628.298,476.273 656.582,451.524 647.743,471.854Z" style="fill:rgb(121,41,41);"/>
                            </g>
                            <g transform="matrix(1.23726,0,0,1.23726,-130.628,-125.116)">
                                <path d="M569.077,440.034C548.748,436.498 524.883,428.543 513.392,434.731C501.902,440.918 484.224,443.569 473.618,451.524C463.011,459.479 487.76,455.944 503.67,447.989C519.58,440.034 534.606,439.15 548.748,444.453C562.89,449.757 589.407,443.569 569.077,440.034Z" style="fill:rgb(121,41,41);"/>
                            </g>
                            <g transform="matrix(1.23726,0,0,1.23726,-130.628,-125.116)">
                                <path d="M660.118,491.299C664.537,507.209 643.324,481.577 649.511,502.79C655.698,524.003 668.073,528.423 657.466,548.752C646.859,569.081 611.504,616.811 633.601,600.901C655.698,584.991 676.028,550.52 671.608,534.61C667.189,518.7 655.698,475.389 660.118,491.299Z" style="fill:rgb(121,41,41);"/>
                            </g>
                            <g transform="matrix(1.23726,0,0,1.23726,-130.628,-125.116)">
                                <path d="M610.62,457.712C593.826,463.899 583.219,464.783 556.703,465.667C530.186,466.55 512.509,470.97 500.134,484.228C487.76,497.487 491.295,497.487 519.58,485.996C547.864,474.505 553.167,478.925 571.729,474.505C590.291,470.086 627.414,451.524 610.62,457.712Z" style="fill:rgb(121,41,41);"/>
                            </g>
                            <g transform="matrix(1.23726,0,0,1.23726,-130.628,-125.116)">
                                <path d="M451.52,470.97C438.262,481.577 413.513,498.37 402.907,533.726C392.3,569.081 396.719,579.688 383.461,591.179C370.203,602.669 401.139,602.669 403.79,587.643C406.442,572.617 404.674,549.636 416.165,530.19C427.655,510.745 464.779,460.363 451.52,470.97Z" style="fill:rgb(121,41,41);"/>
                            </g>
                            <g transform="matrix(1.23726,0,0,1.23726,-130.628,-125.116)">
                                <path d="M563.774,582.34C550.516,591.179 548.748,604.437 521.347,597.366C493.947,590.295 455.056,587.643 485.992,596.482C516.928,605.321 554.935,605.321 562.89,593.83C570.845,582.34 577.032,573.501 563.774,582.34Z" style="fill:rgb(121,41,41);"/>
                            </g>
                            <g transform="matrix(1.23726,0,0,1.23726,-130.628,-125.116)">
                                <path d="M389.648,617.695C402.023,628.302 402.023,631.837 417.049,631.837C432.075,631.837 454.172,622.998 433.843,620.347C413.513,617.695 402.907,616.811 399.371,607.972C395.835,599.133 377.274,607.088 389.648,617.695Z" style="fill:rgb(121,41,41);"/>
                            </g>
                            <g transform="matrix(1.23726,0,0,1.23726,-130.628,-125.116)">
                                <path d="M464.779,609.74C481.573,614.16 501.018,629.186 520.464,626.534C539.909,623.882 569.077,622.115 587.639,619.463C606.201,616.811 613.272,630.953 572.613,633.605C531.954,636.257 511.625,650.399 487.76,637.141C463.895,623.882 447.985,605.321 464.779,609.74Z" style="fill:rgb(121,41,41);"/>
                            </g>
                            <g transform="matrix(1.23726,0,0,1.23726,-130.628,-125.116)">
                                <path d="M444.449,519.584C437.378,534.61 425.888,549.636 428.539,562.894C431.191,576.152 427.655,581.456 425.888,592.062C424.12,602.669 434.727,587.643 440.03,566.43C445.333,545.216 438.262,543.449 455.056,525.771C471.85,508.093 451.52,504.558 444.449,519.584Z" style="fill:rgb(121,41,41);"/>
                            </g>
                            <path d="M457.009,675.425C480.343,679.668 526.305,681.082 556.004,676.132C585.703,671.182 618.937,657.04 634.493,647.848C650.05,638.655 683.284,635.12 635.2,656.333C587.117,677.546 499.435,690.981 475.393,687.446C451.352,683.91 424.482,674.011 423.775,664.111C423.067,654.212 433.674,671.182 457.009,675.425Z" style="fill:rgb(121,41,41);"/>
                            <path d="M477.515,531.882C471.151,558.752 442.159,571.48 474.686,582.794C507.213,594.107 544.69,587.743 518.527,582.794C492.364,577.844 472.565,588.451 476.101,570.066C479.636,551.681 483.879,505.012 477.515,531.882Z" style="fill:rgb(121,41,41);"/>
                            <path d="M581.46,484.505C604.087,480.97 611.866,480.97 620.351,475.313C628.836,469.656 610.451,471.777 613.28,493.698C616.108,515.618 620.351,529.053 604.795,540.367C589.238,551.681 591.359,533.296 597.016,524.811C602.673,516.325 613.28,502.89 602.673,498.648C592.067,494.405 569.439,495.112 561.661,490.869C553.883,486.627 558.832,488.041 581.46,484.505Z" style="fill:rgb(121,41,41);"/>
                            <path d="M494.719,535.759C492.547,549.517 483.496,557.482 496.529,565.446C509.563,573.411 514.269,573.411 524.768,573.411C535.268,573.411 548.301,575.584 559.524,567.619C570.747,559.654 577.626,555.309 579.798,543.724C581.971,532.139 584.343,528.656 586.154,521.777C587.964,514.899 589.767,504.687 593.071,498.752C586.474,502.136 564.171,500.842 556.93,503.014C549.689,505.186 533.85,506.796 527.695,508.244C521.541,509.692 514.579,508.506 508.063,516.471C501.546,524.436 496.891,522.002 494.719,535.759Z" style="fill:rgb(121,41,41);"/>
                            <path d="M793.081,474.847C802.274,512.324 811.466,585.156 791.667,624.754C771.868,664.353 706.814,746.377 658.023,770.419C609.233,794.461 602.869,797.996 566.099,797.289C529.329,796.582 515.831,795.959 580.145,794.596C630.384,793.532 644.491,772.876 654.918,767.315C665.345,761.754 772.432,678.866 786.009,623.994C799.585,569.122 793.363,486.532 788.837,478.047C784.312,469.561 783.889,437.371 793.081,474.847Z" style="fill:rgb(121,41,41);"/>
                            <path d="M548.42,274.399C517.307,275.531 439.243,301.552 414.918,312.866C390.593,324.18 353.258,337.19 337.419,377.92C321.58,418.649 279.719,496.149 283.679,518.776C287.638,541.404 277.456,545.929 293.861,495.017C310.266,444.105 339.779,371.752 356.984,354.754C374.189,337.756 422.296,303.53 470.933,292.359C519.57,281.187 579.533,273.268 548.42,274.399Z" style="fill:rgb(121,41,41);"/>
                            <g transform="matrix(1,0,0,1,-2.17224,-3.25836)">
                                <path d="M238.652,392.401C234.409,370.48 233.702,347.146 253.501,328.054C273.3,308.962 275.421,304.012 300.17,299.062C324.919,294.113 336.94,302.598 307.948,309.669C278.957,316.74 271.354,311.756 255.091,335.798C238.827,359.84 242.894,414.321 238.652,392.401Z" style="fill:rgb(186,69,69);"/>
                            </g>
                            <path d="M877.833,433.144C886.672,448.17 890.207,467.616 891.091,480.874C891.975,494.132 899.93,481.758 897.278,462.312C894.627,442.867 868.994,418.118 877.833,433.144Z" style="fill:rgb(186,69,69);"/>
                            <g transform="matrix(1,0,0,1,3.53555,3.53555)">
                                <path d="M323.636,731.014C338.662,749.575 383.74,796.421 426.167,815.867C468.594,835.312 504.833,840.616 536.653,840.616C568.473,840.616 620.622,831.777 640.951,822.938C661.281,814.099 553.447,837.964 506.601,830.893C459.755,823.822 445.612,822.938 398.766,786.699C351.921,750.459 308.61,712.452 323.636,731.014Z" style="fill:rgb(186,69,69);"/>
                            </g>
                            <path d="M493.244,473.058C497.247,468.906 502.289,463.419 507.628,460.898C512.966,458.377 519.639,459.267 514.301,461.343C508.962,463.419 489.24,477.21 493.244,473.058Z" style="fill:rgb(186,69,69);"/>
                            <path d="M457.95,435.244C460.916,432.13 462.992,429.905 468.627,428.422C474.262,426.939 481.825,424.715 484.346,423.232C486.867,421.749 482.27,426.05 477.08,427.977C471.89,429.905 465.365,433.909 461.213,435.837C457.06,437.765 454.984,438.358 457.95,435.244Z" style="fill:rgb(186,69,69);"/>
                            <path d="M565.758,419.376C571.69,419.673 574.211,421.601 576.732,421.897C579.253,422.194 578.215,426.05 573.766,423.825C569.317,421.601 559.826,419.08 565.758,419.376Z" style="fill:rgb(186,69,69);"/>
                            <path d="M587.829,390.154C591.507,390.51 597.913,392.646 603.252,395.256C608.59,397.865 609.658,400.119 614.403,400.357C619.149,400.594 612.98,402.374 608.59,400.95C604.201,399.526 599.93,394.9 596.49,393.832C593.049,392.764 584.152,389.798 587.829,390.154Z" style="fill:rgb(186,69,69);"/>
                            <path d="M660.789,396.916C663.28,395.849 667.67,394.9 666.602,397.035C665.534,399.17 663.873,401.424 663.992,399.052C664.111,396.679 658.298,397.984 660.789,396.916Z" style="fill:rgb(186,69,69);"/>
                            <path d="M694.006,411.983C703.734,409.373 705.395,405.814 713.937,404.983C722.478,404.153 724.851,403.204 729.359,405.221C733.867,407.237 734.579,413.644 729.478,411.271C724.376,408.898 720.105,408.661 716.665,408.78C713.225,408.898 684.278,414.593 694.006,411.983Z" style="fill:rgb(186,69,69);"/>
                            <path d="M597.055,483.2C602.541,482.903 604.321,482.459 607.287,481.865C610.253,481.272 612.477,483.052 607.583,484.386C602.69,485.721 591.568,483.497 597.055,483.2Z" style="fill:rgb(186,69,69);"/>
                            <path d="M665.12,453.542C666.603,452.652 668.086,450.131 669.866,450.724C671.645,451.317 672.238,454.283 670.459,453.69C668.679,453.097 663.637,454.432 665.12,453.542Z" style="fill:rgb(186,69,69);"/>
                            <path d="M477.347,547.503C476.05,551.396 474.196,551.952 474.752,555.845C475.308,559.737 476.42,561.035 476.976,553.991C477.533,546.947 478.645,543.611 477.347,547.503Z" style="fill:rgb(186,69,69);"/>
                            <path d="M430.45,509.318C434.528,508.947 438.606,505.426 438.791,510.801C438.977,516.177 438.606,517.104 434.157,519.699C429.709,522.294 429.152,521.552 431.191,517.289C433.23,513.025 428.411,512.469 426.001,513.211C423.592,513.952 426.372,509.689 430.45,509.318Z" style="fill:rgb(186,69,69);"/>
                            <path d="M484.89,649.067C494.665,651.601 503.716,654.136 512.405,653.05C521.094,651.964 516.026,661.377 506.613,658.48C497.2,655.584 475.115,646.533 484.89,649.067Z" style="fill:rgb(186,69,69);"/>
                            <path d="M353.849,626.192C356.103,624.649 357.527,622.989 358.95,624.887C360.374,626.785 362.391,627.497 362.391,629.869C362.391,632.242 359.781,631.412 359.543,629.395C359.306,627.378 351.595,627.734 353.849,626.192Z" style="fill:rgb(186,69,69);"/>
                            <path d="M674.833,493.743C674.548,490.991 674.643,488.333 678.819,489.377C682.995,490.421 684.988,489.662 686.696,493.363C688.405,497.065 689.733,500.386 685.557,497.16C681.382,493.933 675.118,496.495 674.833,493.743Z" style="fill:rgb(186,69,69);"/>
                            <path d="M475.533,189.46C503.111,183.096 524.324,173.197 542.709,175.318C561.094,177.44 580.893,179.561 586.549,183.096C592.206,186.632 594.824,178.178 565.938,178.162C537.052,178.147 520.081,185.925 500.989,190.167C481.897,194.41 447.956,195.824 475.533,189.46Z" style="fill:rgb(186,69,69);"/>
                            <g transform="matrix(1,0,0,1,12.728,7.7782)">
                                <path d="M722.314,203.603C735.749,210.674 742.821,212.795 759.791,230.473C776.762,248.15 790.197,247.443 792.318,265.828C794.44,284.213 807.133,267.365 787.351,253.161C767.569,238.958 728.678,217.038 724.436,211.381C720.193,205.724 708.879,196.531 722.314,203.603Z" style="fill:rgb(186,69,69);"/>
                            </g>
                            <path d="M583.53,503.1C578.666,503.812 570.006,502.863 560.989,504.88C551.973,506.896 540.703,509.388 532.755,510.337C524.806,511.286 523.501,509.625 517.332,513.54C511.164,517.455 503.334,524.573 500.368,529.081C497.402,533.589 496.928,540.944 496.334,544.029C495.741,547.113 497.165,537.622 500.605,531.216C504.046,524.81 511.519,518.167 516.621,515.438C521.722,512.709 526.23,512.709 533.941,511.523C541.652,510.337 551.973,507.608 558.735,506.422C565.498,505.236 574.841,504.542 578.77,504.474C582.699,504.405 588.394,502.388 583.53,503.1Z" style="fill:rgb(186,69,69);"/>
                            <path d="M558.465,562.242C552.672,566.181 548.733,567.34 543.867,568.498C539.002,569.657 540.255,569.675 546.475,568.24C552.694,566.805 556.877,563.876 557.523,563.304C558.17,562.732 564.258,558.303 558.465,562.242Z" style="fill:rgb(186,69,69);"/>
                            <path d="M497.439,552.31C503.608,549.344 506.218,548.988 509.896,545.548C513.573,542.107 514.997,541.158 516.302,538.904C517.607,536.65 511.564,545.043 510.398,545.821C509.232,546.598 503.838,550.34 502.088,550.971C500.339,551.603 491.27,555.275 497.439,552.31Z" style="fill:rgb(186,69,69);"/>
                            <path d="M498.298,555.296C501.117,554.227 505.053,553.352 508.989,551.36C512.925,549.368 514.917,548.299 518.367,547.91C521.817,547.521 516.083,548.493 513.848,549.659C511.613,550.826 504.907,553.936 502.72,554.47C500.534,555.005 495.48,556.365 498.298,555.296Z" style="fill:rgb(186,69,69);"/>
                            <path d="M500.339,558.503C503.303,557.629 505.733,556.705 509.912,556.705C514.091,556.705 517.006,558.114 520.408,556.997C523.809,555.879 524.878,554.907 526.53,553.352C528.182,551.798 526.725,554.616 525.364,555.442C524.004,556.268 520.408,558.114 517.929,557.969C515.451,557.823 511.127,556.802 509.572,557.143C508.017,557.483 497.375,559.378 500.339,558.503Z" style="fill:rgb(186,69,69);"/>
                            <g transform="matrix(1,0,0,1,21.2132,17.6777)">
                                <path d="M428.507,711.288C477.298,719.066 511.239,722.601 549.423,714.823C587.606,707.045 627.205,697.145 647.004,681.589C666.803,666.033 623.669,726.137 596.799,727.551C569.929,728.965 514.774,732.501 496.39,738.158C478.005,743.815 463.863,744.522 443.356,736.036C422.85,727.551 379.717,703.509 428.507,711.288Z" style="fill:rgb(93,39,39);"/>
                            </g>
                            <path d="M436.992,348.541C461.034,335.106 477.298,318.136 514.067,320.257C550.837,322.378 557.201,336.52 593.263,337.935C629.326,339.349 586.192,354.905 550.13,349.248C514.067,343.592 500.632,328.742 463.155,348.541C425.679,368.34 412.951,361.976 436.992,348.541Z" style="fill:rgb(93,39,39);"/>
                        </g>
                    </g>
                </g>
            </g>
            <g transform="matrix(0.985715,-0.168422,0.168422,0.985715,38.065,88.7949)">
                <path d="M594.639,74.605L576.999,255.899L620.465,436.239L663.865,521.692L667.249,660.593L582.241,960.536L1004.64,791.035L911.854,154.449L594.639,74.605Z" style="fill:none;"/>
                <clipPath id="_clip2">
                    <path d="M594.639,74.605L576.999,255.899L620.465,436.239L663.865,521.692L667.249,660.593L582.241,960.536L1004.64,791.035L911.854,154.449L594.639,74.605Z"/>
                </clipPath>
                <g clip-path="url(#_clip2)">
                    <g id="Complete-Seal1" serif:id="Complete Seal">
                        <g transform="matrix(1.25957,0,0,1.25957,-321.61,-297.711)">
                            <circle cx="698.623" cy="673.059" r="304.268" style="fill:rgb(216,194,80);"/>
                        </g>
                        <g transform="matrix(1.20426,0,0,1.20426,-299.795,-277.31)">
                            <circle cx="698.623" cy="673.059" r="304.268" style="fill:rgb(230,208,93);"/>
                        </g>
                        <g>
                            <path d="M216.542,676.08C238.985,705.428 282.143,760.671 301.133,798.65C320.123,836.63 321.849,860.799 365.008,869.43C408.166,878.062 491.031,878.062 537.642,881.515C584.253,884.967 722.36,876.336 753.435,855.619C784.509,834.903 872.552,743.407 858.741,681.259C844.931,619.111 879.458,567.32 898.447,543.152C917.437,518.983 917.437,451.656 893.268,427.487C869.1,403.318 822.488,349.801 824.215,303.19C825.941,256.579 753.435,201.336 724.087,197.883C694.739,194.431 623.959,204.789 601.517,182.346C579.074,159.904 494.483,171.988 472.041,180.62C449.598,189.252 370.187,272.116 320.123,277.295C270.059,282.474 211.363,344.622 226.9,391.234C242.437,437.845 235.532,456.835 219.995,498.267C204.458,539.699 194.1,646.732 216.542,676.08Z" style="fill:rgb(121,41,41);"/>
                            <g transform="matrix(1.02711,0,0,1.02711,-53.424,-69.3445)">
                                <circle cx="585.548" cy="599.689" r="270.604" style="fill:rgb(108,40,40);"/>
                            </g>
                            <g transform="matrix(1.23726,0,0,1.23726,-113.13,-162.298)">
                                <path d="M450.636,467.434C485.108,447.105 482.456,447.105 511.625,443.569C540.793,440.034 563.774,442.686 579.684,449.757C595.594,456.828 610.62,455.06 625.646,450.641C640.672,446.221 625.646,467.434 599.129,466.55C572.613,465.667 553.167,453.292 530.186,452.408C507.205,451.524 481.573,457.712 467.43,469.202C453.288,480.693 405.558,497.487 431.191,478.041C456.824,458.595 416.165,487.764 450.636,467.434Z" style="fill:rgb(121,41,41);"/>
                            </g>
                            <g transform="matrix(0.923412,0,0,0.991469,68.7778,-7.32002)">
                                <path d="M661.885,426.776C683.099,417.937 727.293,402.911 720.222,423.24C713.151,443.569 693.705,456.828 687.518,469.202C681.331,481.577 656.582,484.228 668.957,467.434C681.331,450.641 724.641,418.821 688.402,432.079C652.163,445.337 653.93,444.453 640.672,443.569C627.414,442.686 640.672,435.614 661.885,426.776Z" style="fill:rgb(121,41,41);"/>
                            </g>
                            <g transform="matrix(1.23726,0,0,1.23726,-130.628,-125.116)">
                                <path d="M647.743,471.854C638.904,492.183 623.878,507.209 630.949,528.423C638.02,549.636 638.904,558.475 624.762,578.804C610.62,599.133 600.013,614.16 577.032,614.16C554.051,614.16 572.613,612.392 593.826,595.598C615.039,578.804 620.343,574.385 619.459,549.636C618.575,524.887 607.084,520.468 617.691,498.37C628.298,476.273 656.582,451.524 647.743,471.854Z" style="fill:rgb(121,41,41);"/>
                            </g>
                            <g transform="matrix(1.23726,0,0,1.23726,-130.628,-125.116)">
                                <path d="M569.077,440.034C548.748,436.498 524.883,428.543 513.392,434.731C501.902,440.918 484.224,443.569 473.618,451.524C463.011,459.479 487.76,455.944 503.67,447.989C519.58,440.034 534.606,439.15 548.748,444.453C562.89,449.757 589.407,443.569 569.077,440.034Z" style="fill:rgb(121,41,41);"/>
                            </g>
                            <g transform="matrix(1.23726,0,0,1.23726,-130.628,-125.116)">
                                <path d="M660.118,491.299C664.537,507.209 643.324,481.577 649.511,502.79C655.698,524.003 668.073,528.423 657.466,548.752C646.859,569.081 611.504,616.811 633.601,600.901C655.698,584.991 676.028,550.52 671.608,534.61C667.189,518.7 655.698,475.389 660.118,491.299Z" style="fill:rgb(121,41,41);"/>
                            </g>
                            <g transform="matrix(1.23726,0,0,1.23726,-130.628,-125.116)">
                                <path d="M610.62,457.712C593.826,463.899 583.219,464.783 556.703,465.667C530.186,466.55 512.509,470.97 500.134,484.228C487.76,497.487 491.295,497.487 519.58,485.996C547.864,474.505 553.167,478.925 571.729,474.505C590.291,470.086 627.414,451.524 610.62,457.712Z" style="fill:rgb(121,41,41);"/>
                            </g>
                            <g transform="matrix(1.23726,0,0,1.23726,-130.628,-125.116)">
                                <path d="M451.52,470.97C438.262,481.577 413.513,498.37 402.907,533.726C392.3,569.081 396.719,579.688 383.461,591.179C370.203,602.669 401.139,602.669 403.79,587.643C406.442,572.617 404.674,549.636 416.165,530.19C427.655,510.745 464.779,460.363 451.52,470.97Z" style="fill:rgb(121,41,41);"/>
                            </g>
                            <g transform="matrix(1.23726,0,0,1.23726,-130.628,-125.116)">
                                <path d="M563.774,582.34C550.516,591.179 548.748,604.437 521.347,597.366C493.947,590.295 455.056,587.643 485.992,596.482C516.928,605.321 554.935,605.321 562.89,593.83C570.845,582.34 577.032,573.501 563.774,582.34Z" style="fill:rgb(121,41,41);"/>
                            </g>
                            <g transform="matrix(1.23726,0,0,1.23726,-130.628,-125.116)">
                                <path d="M389.648,617.695C402.023,628.302 402.023,631.837 417.049,631.837C432.075,631.837 454.172,622.998 433.843,620.347C413.513,617.695 402.907,616.811 399.371,607.972C395.835,599.133 377.274,607.088 389.648,617.695Z" style="fill:rgb(121,41,41);"/>
                            </g>
                            <g transform="matrix(1.23726,0,0,1.23726,-130.628,-125.116)">
                                <path d="M464.779,609.74C481.573,614.16 501.018,629.186 520.464,626.534C539.909,623.882 569.077,622.115 587.639,619.463C606.201,616.811 613.272,630.953 572.613,633.605C531.954,636.257 511.625,650.399 487.76,637.141C463.895,623.882 447.985,605.321 464.779,609.74Z" style="fill:rgb(121,41,41);"/>
                            </g>
                            <g transform="matrix(1.23726,0,0,1.23726,-130.628,-125.116)">
                                <path d="M444.449,519.584C437.378,534.61 425.888,549.636 428.539,562.894C431.191,576.152 427.655,581.456 425.888,592.062C424.12,602.669 434.727,587.643 440.03,566.43C445.333,545.216 438.262,543.449 455.056,525.771C471.85,508.093 451.52,504.558 444.449,519.584Z" style="fill:rgb(121,41,41);"/>
                            </g>
                            <path d="M457.009,675.425C480.343,679.668 526.305,681.082 556.004,676.132C585.703,671.182 618.937,657.04 634.493,647.848C650.05,638.655 683.284,635.12 635.2,656.333C587.117,677.546 499.435,690.981 475.393,687.446C451.352,683.91 424.482,674.011 423.775,664.111C423.067,654.212 433.674,671.182 457.009,675.425Z" style="fill:rgb(121,41,41);"/>
                            <path d="M477.515,531.882C471.151,558.752 442.159,571.48 474.686,582.794C507.213,594.107 544.69,587.743 518.527,582.794C492.364,577.844 472.565,588.451 476.101,570.066C479.636,551.681 483.879,505.012 477.515,531.882Z" style="fill:rgb(121,41,41);"/>
                            <path d="M581.46,484.505C604.087,480.97 611.866,480.97 620.351,475.313C628.836,469.656 610.451,471.777 613.28,493.698C616.108,515.618 620.351,529.053 604.795,540.367C589.238,551.681 591.359,533.296 597.016,524.811C602.673,516.325 613.28,502.89 602.673,498.648C592.067,494.405 569.439,495.112 561.661,490.869C553.883,486.627 558.832,488.041 581.46,484.505Z" style="fill:rgb(121,41,41);"/>
                            <path d="M494.719,535.759C492.547,549.517 483.496,557.482 496.529,565.446C509.563,573.411 514.269,573.411 524.768,573.411C535.268,573.411 548.301,575.584 559.524,567.619C570.747,559.654 577.626,555.309 579.798,543.724C581.971,532.139 584.343,528.656 586.154,521.777C587.964,514.899 589.767,504.687 593.071,498.752C586.474,502.136 564.171,500.842 556.93,503.014C549.689,505.186 533.85,506.796 527.695,508.244C521.541,509.692 514.579,508.506 508.063,516.471C501.546,524.436 496.891,522.002 494.719,535.759Z" style="fill:rgb(121,41,41);"/>
                            <path d="M793.081,474.847C802.274,512.324 811.466,585.156 791.667,624.754C771.868,664.353 706.814,746.377 658.023,770.419C609.233,794.461 602.869,797.996 566.099,797.289C529.329,796.582 515.831,795.959 580.145,794.596C630.384,793.532 644.491,772.876 654.918,767.315C665.345,761.754 772.432,678.866 786.009,623.994C799.585,569.122 793.363,486.532 788.837,478.047C784.312,469.561 783.889,437.371 793.081,474.847Z" style="fill:rgb(121,41,41);"/>
                            <path d="M548.42,274.399C517.307,275.531 439.243,301.552 414.918,312.866C390.593,324.18 353.258,337.19 337.419,377.92C321.58,418.649 279.719,496.149 283.679,518.776C287.638,541.404 277.456,545.929 293.861,495.017C310.266,444.105 339.779,371.752 356.984,354.754C374.189,337.756 422.296,303.53 470.933,292.359C519.57,281.187 579.533,273.268 548.42,274.399Z" style="fill:rgb(121,41,41);"/>
                            <g transform="matrix(1,0,0,1,-2.17224,-3.25836)">
                                <path d="M238.652,392.401C234.409,370.48 233.702,347.146 253.501,328.054C273.3,308.962 275.421,304.012 300.17,299.062C324.919,294.113 336.94,302.598 307.948,309.669C278.957,316.74 271.354,311.756 255.091,335.798C238.827,359.84 242.894,414.321 238.652,392.401Z" style="fill:rgb(186,69,69);"/>
                            </g>
                            <path d="M877.833,433.144C886.672,448.17 890.207,467.616 891.091,480.874C891.975,494.132 899.93,481.758 897.278,462.312C894.627,442.867 868.994,418.118 877.833,433.144Z" style="fill:rgb(186,69,69);"/>
                            <g transform="matrix(1,0,0,1,3.53555,3.53555)">
                                <path d="M323.636,731.014C338.662,749.575 383.74,796.421 426.167,815.867C468.594,835.312 504.833,840.616 536.653,840.616C568.473,840.616 620.622,831.777 640.951,822.938C661.281,814.099 553.447,837.964 506.601,830.893C459.755,823.822 445.612,822.938 398.766,786.699C351.921,750.459 308.61,712.452 323.636,731.014Z" style="fill:rgb(186,69,69);"/>
                            </g>
                            <path d="M493.244,473.058C497.247,468.906 502.289,463.419 507.628,460.898C512.966,458.377 519.639,459.267 514.301,461.343C508.962,463.419 489.24,477.21 493.244,473.058Z" style="fill:rgb(186,69,69);"/>
                            <path d="M457.95,435.244C460.916,432.13 462.992,429.905 468.627,428.422C474.262,426.939 481.825,424.715 484.346,423.232C486.867,421.749 482.27,426.05 477.08,427.977C471.89,429.905 465.365,433.909 461.213,435.837C457.06,437.765 454.984,438.358 457.95,435.244Z" style="fill:rgb(186,69,69);"/>
                            <path d="M565.758,419.376C571.69,419.673 574.211,421.601 576.732,421.897C579.253,422.194 578.215,426.05 573.766,423.825C569.317,421.601 559.826,419.08 565.758,419.376Z" style="fill:rgb(186,69,69);"/>
                            <path d="M587.829,390.154C591.507,390.51 597.913,392.646 603.252,395.256C608.59,397.865 609.658,400.119 614.403,400.357C619.149,400.594 612.98,402.374 608.59,400.95C604.201,399.526 599.93,394.9 596.49,393.832C593.049,392.764 584.152,389.798 587.829,390.154Z" style="fill:rgb(186,69,69);"/>
                            <path d="M660.789,396.916C663.28,395.849 667.67,394.9 666.602,397.035C665.534,399.17 663.873,401.424 663.992,399.052C664.111,396.679 658.298,397.984 660.789,396.916Z" style="fill:rgb(186,69,69);"/>
                            <path d="M694.006,411.983C703.734,409.373 705.395,405.814 713.937,404.983C722.478,404.153 724.851,403.204 729.359,405.221C733.867,407.237 734.579,413.644 729.478,411.271C724.376,408.898 720.105,408.661 716.665,408.78C713.225,408.898 684.278,414.593 694.006,411.983Z" style="fill:rgb(186,69,69);"/>
                            <path d="M597.055,483.2C602.541,482.903 604.321,482.459 607.287,481.865C610.253,481.272 612.477,483.052 607.583,484.386C602.69,485.721 591.568,483.497 597.055,483.2Z" style="fill:rgb(186,69,69);"/>
                            <path d="M665.12,453.542C666.603,452.652 668.086,450.131 669.866,450.724C671.645,451.317 672.238,454.283 670.459,453.69C668.679,453.097 663.637,454.432 665.12,453.542Z" style="fill:rgb(186,69,69);"/>
                            <path d="M477.347,547.503C476.05,551.396 474.196,551.952 474.752,555.845C475.308,559.737 476.42,561.035 476.976,553.991C477.533,546.947 478.645,543.611 477.347,547.503Z" style="fill:rgb(186,69,69);"/>
                            <path d="M430.45,509.318C434.528,508.947 438.606,505.426 438.791,510.801C438.977,516.177 438.606,517.104 434.157,519.699C429.709,522.294 429.152,521.552 431.191,517.289C433.23,513.025 428.411,512.469 426.001,513.211C423.592,513.952 426.372,509.689 430.45,509.318Z" style="fill:rgb(186,69,69);"/>
                            <path d="M484.89,649.067C494.665,651.601 503.716,654.136 512.405,653.05C521.094,651.964 516.026,661.377 506.613,658.48C497.2,655.584 475.115,646.533 484.89,649.067Z" style="fill:rgb(186,69,69);"/>
                            <path d="M353.849,626.192C356.103,624.649 357.527,622.989 358.95,624.887C360.374,626.785 362.391,627.497 362.391,629.869C362.391,632.242 359.781,631.412 359.543,629.395C359.306,627.378 351.595,627.734 353.849,626.192Z" style="fill:rgb(186,69,69);"/>
                            <path d="M674.833,493.743C674.548,490.991 674.643,488.333 678.819,489.377C682.995,490.421 684.988,489.662 686.696,493.363C688.405,497.065 689.733,500.386 685.557,497.16C681.382,493.933 675.118,496.495 674.833,493.743Z" style="fill:rgb(186,69,69);"/>
                            <path d="M475.533,189.46C503.111,183.096 524.324,173.197 542.709,175.318C561.094,177.44 580.893,179.561 586.549,183.096C592.206,186.632 594.824,178.178 565.938,178.162C537.052,178.147 520.081,185.925 500.989,190.167C481.897,194.41 447.956,195.824 475.533,189.46Z" style="fill:rgb(186,69,69);"/>
                            <g transform="matrix(1,0,0,1,12.728,7.7782)">
                                <path d="M722.314,203.603C735.749,210.674 742.821,212.795 759.791,230.473C776.762,248.15 790.197,247.443 792.318,265.828C794.44,284.213 807.133,267.365 787.351,253.161C767.569,238.958 728.678,217.038 724.436,211.381C720.193,205.724 708.879,196.531 722.314,203.603Z" style="fill:rgb(186,69,69);"/>
                            </g>
                            <path d="M583.53,503.1C578.666,503.812 570.006,502.863 560.989,504.88C551.973,506.896 540.703,509.388 532.755,510.337C524.806,511.286 523.501,509.625 517.332,513.54C511.164,517.455 503.334,524.573 500.368,529.081C497.402,533.589 496.928,540.944 496.334,544.029C495.741,547.113 497.165,537.622 500.605,531.216C504.046,524.81 511.519,518.167 516.621,515.438C521.722,512.709 526.23,512.709 533.941,511.523C541.652,510.337 551.973,507.608 558.735,506.422C565.498,505.236 574.841,504.542 578.77,504.474C582.699,504.405 588.394,502.388 583.53,503.1Z" style="fill:rgb(186,69,69);"/>
                            <path d="M558.465,562.242C552.672,566.181 548.733,567.34 543.867,568.498C539.002,569.657 540.255,569.675 546.475,568.24C552.694,566.805 556.877,563.876 557.523,563.304C558.17,562.732 564.258,558.303 558.465,562.242Z" style="fill:rgb(186,69,69);"/>
                            <path d="M497.439,552.31C503.608,549.344 506.218,548.988 509.896,545.548C513.573,542.107 514.997,541.158 516.302,538.904C517.607,536.65 511.564,545.043 510.398,545.821C509.232,546.598 503.838,550.34 502.088,550.971C500.339,551.603 491.27,555.275 497.439,552.31Z" style="fill:rgb(186,69,69);"/>
                            <path d="M498.298,555.296C501.117,554.227 505.053,553.352 508.989,551.36C512.925,549.368 514.917,548.299 518.367,547.91C521.817,547.521 516.083,548.493 513.848,549.659C511.613,550.826 504.907,553.936 502.72,554.47C500.534,555.005 495.48,556.365 498.298,555.296Z" style="fill:rgb(186,69,69);"/>
                            <path d="M500.339,558.503C503.303,557.629 505.733,556.705 509.912,556.705C514.091,556.705 517.006,558.114 520.408,556.997C523.809,555.879 524.878,554.907 526.53,553.352C528.182,551.798 526.725,554.616 525.364,555.442C524.004,556.268 520.408,558.114 517.929,557.969C515.451,557.823 511.127,556.802 509.572,557.143C508.017,557.483 497.375,559.378 500.339,558.503Z" style="fill:rgb(186,69,69);"/>
                            <g transform="matrix(1,0,0,1,21.2132,17.6777)">
                                <path d="M428.507,711.288C477.298,719.066 511.239,722.601 549.423,714.823C587.606,707.045 627.205,697.145 647.004,681.589C666.803,666.033 623.669,726.137 596.799,727.551C569.929,728.965 514.774,732.501 496.39,738.158C478.005,743.815 463.863,744.522 443.356,736.036C422.85,727.551 379.717,703.509 428.507,711.288Z" style="fill:rgb(93,39,39);"/>
                            </g>
                            <path d="M436.992,348.541C461.034,335.106 477.298,318.136 514.067,320.257C550.837,322.378 557.201,336.52 593.263,337.935C629.326,339.349 586.192,354.905 550.13,349.248C514.067,343.592 500.632,328.742 463.155,348.541C425.679,368.34 412.951,361.976 436.992,348.541Z" style="fill:rgb(93,39,39);"/>
                        </g>
                    </g>
                </g>
            </g>
            <g transform="matrix(0.907005,-0.42112,0.42112,0.907005,-126.246,363.522)">
                <path d="M598.122,344.531L557.393,366.593L500.259,439.566L435.771,493.307L453.872,586.079L512.704,623.98L621.316,638.688L666.57,662.447L664.308,521.025L620.184,435.607L598.122,344.531Z" style="fill:none;"/>
                <clipPath id="_clip3">
                    <path d="M598.122,344.531L557.393,366.593L500.259,439.566L435.771,493.307L453.872,586.079L512.704,623.98L621.316,638.688L666.57,662.447L664.308,521.025L620.184,435.607L598.122,344.531Z"/>
                </clipPath>
                <g clip-path="url(#_clip3)">
                    <g id="Complete-Seal2" serif:id="Complete Seal">
                        <g transform="matrix(1.25957,0,0,1.25957,-321.61,-297.711)">
                            <circle cx="698.623" cy="673.059" r="304.268" style="fill:rgb(216,194,80);"/>
                        </g>
                        <g transform="matrix(1.20426,0,0,1.20426,-299.795,-277.31)">
                            <circle cx="698.623" cy="673.059" r="304.268" style="fill:rgb(230,208,93);"/>
                        </g>
                        <g id="Layer11" serif:id="Layer1">
                            <path d="M216.542,676.08C238.985,705.428 282.143,760.671 301.133,798.65C320.123,836.63 321.849,860.799 365.008,869.43C408.166,878.062 491.031,878.062 537.642,881.515C584.253,884.967 722.36,876.336 753.435,855.619C784.509,834.903 872.552,743.407 858.741,681.259C844.931,619.111 879.458,567.32 898.447,543.152C917.437,518.983 917.437,451.656 893.268,427.487C869.1,403.318 822.488,349.801 824.215,303.19C825.941,256.579 753.435,201.336 724.087,197.883C694.739,194.431 623.959,204.789 601.517,182.346C579.074,159.904 494.483,171.988 472.041,180.62C449.598,189.252 370.187,272.116 320.123,277.295C270.059,282.474 211.363,344.622 226.9,391.234C242.437,437.845 235.532,456.835 219.995,498.267C204.458,539.699 194.1,646.732 216.542,676.08Z" style="fill:rgb(121,41,41);"/>
                            <g transform="matrix(1.02711,0,0,1.02711,-53.424,-69.3445)">
                                <circle cx="585.548" cy="599.689" r="270.604" style="fill:rgb(108,40,40);"/>
                            </g>
                            <g transform="matrix(1.23726,0,0,1.23726,-113.13,-162.298)">
                                <path d="M450.636,467.434C485.108,447.105 482.456,447.105 511.625,443.569C540.793,440.034 563.774,442.686 579.684,449.757C595.594,456.828 610.62,455.06 625.646,450.641C640.672,446.221 625.646,467.434 599.129,466.55C572.613,465.667 553.167,453.292 530.186,452.408C507.205,451.524 481.573,457.712 467.43,469.202C453.288,480.693 405.558,497.487 431.191,478.041C456.824,458.595 416.165,487.764 450.636,467.434Z" style="fill:rgb(121,41,41);"/>
                            </g>
                            <g transform="matrix(0.923412,0,0,0.991469,68.7778,-7.32002)">
                                <path d="M661.885,426.776C683.099,417.937 727.293,402.911 720.222,423.24C713.151,443.569 693.705,456.828 687.518,469.202C681.331,481.577 656.582,484.228 668.957,467.434C681.331,450.641 724.641,418.821 688.402,432.079C652.163,445.337 653.93,444.453 640.672,443.569C627.414,442.686 640.672,435.614 661.885,426.776Z" style="fill:rgb(121,41,41);"/>
                            </g>
                            <g transform="matrix(1.23726,0,0,1.23726,-130.628,-125.116)">
                                <path d="M647.743,471.854C638.904,492.183 623.878,507.209 630.949,528.423C638.02,549.636 638.904,558.475 624.762,578.804C610.62,599.133 600.013,614.16 577.032,614.16C554.051,614.16 572.613,612.392 593.826,595.598C615.039,578.804 620.343,574.385 619.459,549.636C618.575,524.887 607.084,520.468 617.691,498.37C628.298,476.273 656.582,451.524 647.743,471.854Z" style="fill:rgb(121,41,41);"/>
                            </g>
                            <g transform="matrix(1.23726,0,0,1.23726,-130.628,-125.116)">
                                <path d="M569.077,440.034C548.748,436.498 524.883,428.543 513.392,434.731C501.902,440.918 484.224,443.569 473.618,451.524C463.011,459.479 487.76,455.944 503.67,447.989C519.58,440.034 534.606,439.15 548.748,444.453C562.89,449.757 589.407,443.569 569.077,440.034Z" style="fill:rgb(121,41,41);"/>
                            </g>
                            <g transform="matrix(1.23726,0,0,1.23726,-130.628,-125.116)">
                                <path d="M660.118,491.299C664.537,507.209 643.324,481.577 649.511,502.79C655.698,524.003 668.073,528.423 657.466,548.752C646.859,569.081 611.504,616.811 633.601,600.901C655.698,584.991 676.028,550.52 671.608,534.61C667.189,518.7 655.698,475.389 660.118,491.299Z" style="fill:rgb(121,41,41);"/>
                            </g>
                            <g transform="matrix(1.23726,0,0,1.23726,-130.628,-125.116)">
                                <path d="M610.62,457.712C593.826,463.899 583.219,464.783 556.703,465.667C530.186,466.55 512.509,470.97 500.134,484.228C487.76,497.487 491.295,497.487 519.58,485.996C547.864,474.505 553.167,478.925 571.729,474.505C590.291,470.086 627.414,451.524 610.62,457.712Z" style="fill:rgb(121,41,41);"/>
                            </g>
                            <g transform="matrix(1.23726,0,0,1.23726,-130.628,-125.116)">
                                <path d="M451.52,470.97C438.262,481.577 413.513,498.37 402.907,533.726C392.3,569.081 396.719,579.688 383.461,591.179C370.203,602.669 401.139,602.669 403.79,587.643C406.442,572.617 404.674,549.636 416.165,530.19C427.655,510.745 464.779,460.363 451.52,470.97Z" style="fill:rgb(121,41,41);"/>
                            </g>
                            <g transform="matrix(1.23726,0,0,1.23726,-130.628,-125.116)">
                                <path d="M563.774,582.34C550.516,591.179 548.748,604.437 521.347,597.366C493.947,590.295 455.056,587.643 485.992,596.482C516.928,605.321 554.935,605.321 562.89,593.83C570.845,582.34 577.032,573.501 563.774,582.34Z" style="fill:rgb(121,41,41);"/>
                            </g>
                            <g transform="matrix(1.23726,0,0,1.23726,-130.628,-125.116)">
                                <path d="M389.648,617.695C402.023,628.302 402.023,631.837 417.049,631.837C432.075,631.837 454.172,622.998 433.843,620.347C413.513,617.695 402.907,616.811 399.371,607.972C395.835,599.133 377.274,607.088 389.648,617.695Z" style="fill:rgb(121,41,41);"/>
                            </g>
                            <g transform="matrix(1.23726,0,0,1.23726,-130.628,-125.116)">
                                <path d="M464.779,609.74C481.573,614.16 501.018,629.186 520.464,626.534C539.909,623.882 569.077,622.115 587.639,619.463C606.201,616.811 613.272,630.953 572.613,633.605C531.954,636.257 511.625,650.399 487.76,637.141C463.895,623.882 447.985,605.321 464.779,609.74Z" style="fill:rgb(121,41,41);"/>
                            </g>
                            <g transform="matrix(1.23726,0,0,1.23726,-130.628,-125.116)">
                                <path d="M444.449,519.584C437.378,534.61 425.888,549.636 428.539,562.894C431.191,576.152 427.655,581.456 425.888,592.062C424.12,602.669 434.727,587.643 440.03,566.43C445.333,545.216 438.262,543.449 455.056,525.771C471.85,508.093 451.52,504.558 444.449,519.584Z" style="fill:rgb(121,41,41);"/>
                            </g>
                            <path d="M457.009,675.425C480.343,679.668 526.305,681.082 556.004,676.132C585.703,671.182 618.937,657.04 634.493,647.848C650.05,638.655 683.284,635.12 635.2,656.333C587.117,677.546 499.435,690.981 475.393,687.446C451.352,683.91 424.482,674.011 423.775,664.111C423.067,654.212 433.674,671.182 457.009,675.425Z" style="fill:rgb(121,41,41);"/>
                            <path d="M477.515,531.882C471.151,558.752 442.159,571.48 474.686,582.794C507.213,594.107 544.69,587.743 518.527,582.794C492.364,577.844 472.565,588.451 476.101,570.066C479.636,551.681 483.879,505.012 477.515,531.882Z" style="fill:rgb(121,41,41);"/>
                            <path d="M581.46,484.505C604.087,480.97 611.866,480.97 620.351,475.313C628.836,469.656 610.451,471.777 613.28,493.698C616.108,515.618 620.351,529.053 604.795,540.367C589.238,551.681 591.359,533.296 597.016,524.811C602.673,516.325 613.28,502.89 602.673,498.648C592.067,494.405 569.439,495.112 561.661,490.869C553.883,486.627 558.832,488.041 581.46,484.505Z" style="fill:rgb(121,41,41);"/>
                            <path d="M494.719,535.759C492.547,549.517 483.496,557.482 496.529,565.446C509.563,573.411 514.269,573.411 524.768,573.411C535.268,573.411 548.301,575.584 559.524,567.619C570.747,559.654 577.626,555.309 579.798,543.724C581.971,532.139 584.343,528.656 586.154,521.777C587.964,514.899 589.767,504.687 593.071,498.752C586.474,502.136 564.171,500.842 556.93,503.014C549.689,505.186 533.85,506.796 527.695,508.244C521.541,509.692 514.579,508.506 508.063,516.471C501.546,524.436 496.891,522.002 494.719,535.759Z" style="fill:rgb(121,41,41);"/>
                            <path d="M793.081,474.847C802.274,512.324 811.466,585.156 791.667,624.754C771.868,664.353 706.814,746.377 658.023,770.419C609.233,794.461 602.869,797.996 566.099,797.289C529.329,796.582 515.831,795.959 580.145,794.596C630.384,793.532 644.491,772.876 654.918,767.315C665.345,761.754 772.432,678.866 786.009,623.994C799.585,569.122 793.363,486.532 788.837,478.047C784.312,469.561 783.889,437.371 793.081,474.847Z" style="fill:rgb(121,41,41);"/>
                            <path d="M548.42,274.399C517.307,275.531 439.243,301.552 414.918,312.866C390.593,324.18 353.258,337.19 337.419,377.92C321.58,418.649 279.719,496.149 283.679,518.776C287.638,541.404 277.456,545.929 293.861,495.017C310.266,444.105 339.779,371.752 356.984,354.754C374.189,337.756 422.296,303.53 470.933,292.359C519.57,281.187 579.533,273.268 548.42,274.399Z" style="fill:rgb(121,41,41);"/>
                            <g transform="matrix(1,0,0,1,-2.17224,-3.25836)">
                                <path d="M238.652,392.401C234.409,370.48 233.702,347.146 253.501,328.054C273.3,308.962 275.421,304.012 300.17,299.062C324.919,294.113 336.94,302.598 307.948,309.669C278.957,316.74 271.354,311.756 255.091,335.798C238.827,359.84 242.894,414.321 238.652,392.401Z" style="fill:rgb(186,69,69);"/>
                            </g>
                            <path d="M877.833,433.144C886.672,448.17 890.207,467.616 891.091,480.874C891.975,494.132 899.93,481.758 897.278,462.312C894.627,442.867 868.994,418.118 877.833,433.144Z" style="fill:rgb(186,69,69);"/>
                            <g transform="matrix(1,0,0,1,3.53555,3.53555)">
                                <path d="M323.636,731.014C338.662,749.575 383.74,796.421 426.167,815.867C468.594,835.312 504.833,840.616 536.653,840.616C568.473,840.616 620.622,831.777 640.951,822.938C661.281,814.099 553.447,837.964 506.601,830.893C459.755,823.822 445.612,822.938 398.766,786.699C351.921,750.459 308.61,712.452 323.636,731.014Z" style="fill:rgb(186,69,69);"/>
                            </g>
                            <path d="M493.244,473.058C497.247,468.906 502.289,463.419 507.628,460.898C512.966,458.377 519.639,459.267 514.301,461.343C508.962,463.419 489.24,477.21 493.244,473.058Z" style="fill:rgb(186,69,69);"/>
                            <path d="M457.95,435.244C460.916,432.13 462.992,429.905 468.627,428.422C474.262,426.939 481.825,424.715 484.346,423.232C486.867,421.749 482.27,426.05 477.08,427.977C471.89,429.905 465.365,433.909 461.213,435.837C457.06,437.765 454.984,438.358 457.95,435.244Z" style="fill:rgb(186,69,69);"/>
                            <path d="M565.758,419.376C571.69,419.673 574.211,421.601 576.732,421.897C579.253,422.194 578.215,426.05 573.766,423.825C569.317,421.601 559.826,419.08 565.758,419.376Z" style="fill:rgb(186,69,69);"/>
                            <path d="M587.829,390.154C591.507,390.51 597.913,392.646 603.252,395.256C608.59,397.865 609.658,400.119 614.403,400.357C619.149,400.594 612.98,402.374 608.59,400.95C604.201,399.526 599.93,394.9 596.49,393.832C593.049,392.764 584.152,389.798 587.829,390.154Z" style="fill:rgb(186,69,69);"/>
                            <path d="M660.789,396.916C663.28,395.849 667.67,394.9 666.602,397.035C665.534,399.17 663.873,401.424 663.992,399.052C664.111,396.679 658.298,397.984 660.789,396.916Z" style="fill:rgb(186,69,69);"/>
                            <path d="M694.006,411.983C703.734,409.373 705.395,405.814 713.937,404.983C722.478,404.153 724.851,403.204 729.359,405.221C733.867,407.237 734.579,413.644 729.478,411.271C724.376,408.898 720.105,408.661 716.665,408.78C713.225,408.898 684.278,414.593 694.006,411.983Z" style="fill:rgb(186,69,69);"/>
                            <path d="M597.055,483.2C602.541,482.903 604.321,482.459 607.287,481.865C610.253,481.272 612.477,483.052 607.583,484.386C602.69,485.721 591.568,483.497 597.055,483.2Z" style="fill:rgb(186,69,69);"/>
                            <path d="M665.12,453.542C666.603,452.652 668.086,450.131 669.866,450.724C671.645,451.317 672.238,454.283 670.459,453.69C668.679,453.097 663.637,454.432 665.12,453.542Z" style="fill:rgb(186,69,69);"/>
                            <path d="M477.347,547.503C476.05,551.396 474.196,551.952 474.752,555.845C475.308,559.737 476.42,561.035 476.976,553.991C477.533,546.947 478.645,543.611 477.347,547.503Z" style="fill:rgb(186,69,69);"/>
                            <path d="M430.45,509.318C434.528,508.947 438.606,505.426 438.791,510.801C438.977,516.177 438.606,517.104 434.157,519.699C429.709,522.294 429.152,521.552 431.191,517.289C433.23,513.025 428.411,512.469 426.001,513.211C423.592,513.952 426.372,509.689 430.45,509.318Z" style="fill:rgb(186,69,69);"/>
                            <path d="M484.89,649.067C494.665,651.601 503.716,654.136 512.405,653.05C521.094,651.964 516.026,661.377 506.613,658.48C497.2,655.584 475.115,646.533 484.89,649.067Z" style="fill:rgb(186,69,69);"/>
                            <path d="M353.849,626.192C356.103,624.649 357.527,622.989 358.95,624.887C360.374,626.785 362.391,627.497 362.391,629.869C362.391,632.242 359.781,631.412 359.543,629.395C359.306,627.378 351.595,627.734 353.849,626.192Z" style="fill:rgb(186,69,69);"/>
                            <path d="M674.833,493.743C674.548,490.991 674.643,488.333 678.819,489.377C682.995,490.421 684.988,489.662 686.696,493.363C688.405,497.065 689.733,500.386 685.557,497.16C681.382,493.933 675.118,496.495 674.833,493.743Z" style="fill:rgb(186,69,69);"/>
                            <path d="M475.533,189.46C503.111,183.096 524.324,173.197 542.709,175.318C561.094,177.44 580.893,179.561 586.549,183.096C592.206,186.632 594.824,178.178 565.938,178.162C537.052,178.147 520.081,185.925 500.989,190.167C481.897,194.41 447.956,195.824 475.533,189.46Z" style="fill:rgb(186,69,69);"/>
                            <g transform="matrix(1,0,0,1,12.728,7.7782)">
                                <path d="M722.314,203.603C735.749,210.674 742.821,212.795 759.791,230.473C776.762,248.15 790.197,247.443 792.318,265.828C794.44,284.213 807.133,267.365 787.351,253.161C767.569,238.958 728.678,217.038 724.436,211.381C720.193,205.724 708.879,196.531 722.314,203.603Z" style="fill:rgb(186,69,69);"/>
                            </g>
                            <path d="M583.53,503.1C578.666,503.812 570.006,502.863 560.989,504.88C551.973,506.896 540.703,509.388 532.755,510.337C524.806,511.286 523.501,509.625 517.332,513.54C511.164,517.455 503.334,524.573 500.368,529.081C497.402,533.589 496.928,540.944 496.334,544.029C495.741,547.113 497.165,537.622 500.605,531.216C504.046,524.81 511.519,518.167 516.621,515.438C521.722,512.709 526.23,512.709 533.941,511.523C541.652,510.337 551.973,507.608 558.735,506.422C565.498,505.236 574.841,504.542 578.77,504.474C582.699,504.405 588.394,502.388 583.53,503.1Z" style="fill:rgb(186,69,69);"/>
                            <path d="M558.465,562.242C552.672,566.181 548.733,567.34 543.867,568.498C539.002,569.657 540.255,569.675 546.475,568.24C552.694,566.805 556.877,563.876 557.523,563.304C558.17,562.732 564.258,558.303 558.465,562.242Z" style="fill:rgb(186,69,69);"/>
                            <path d="M497.439,552.31C503.608,549.344 506.218,548.988 509.896,545.548C513.573,542.107 514.997,541.158 516.302,538.904C517.607,536.65 511.564,545.043 510.398,545.821C509.232,546.598 503.838,550.34 502.088,550.971C500.339,551.603 491.27,555.275 497.439,552.31Z" style="fill:rgb(186,69,69);"/>
                            <path d="M498.298,555.296C501.117,554.227 505.053,553.352 508.989,551.36C512.925,549.368 514.917,548.299 518.367,547.91C521.817,547.521 516.083,548.493 513.848,549.659C511.613,550.826 504.907,553.936 502.72,554.47C500.534,555.005 495.48,556.365 498.298,555.296Z" style="fill:rgb(186,69,69);"/>
                            <path d="M500.339,558.503C503.303,557.629 505.733,556.705 509.912,556.705C514.091,556.705 517.006,558.114 520.408,556.997C523.809,555.879 524.878,554.907 526.53,553.352C528.182,551.798 526.725,554.616 525.364,555.442C524.004,556.268 520.408,558.114 517.929,557.969C515.451,557.823 511.127,556.802 509.572,557.143C508.017,557.483 497.375,559.378 500.339,558.503Z" style="fill:rgb(186,69,69);"/>
                            <g transform="matrix(1,0,0,1,21.2132,17.6777)">
                                <path d="M428.507,711.288C477.298,719.066 511.239,722.601 549.423,714.823C587.606,707.045 627.205,697.145 647.004,681.589C666.803,666.033 623.669,726.137 596.799,727.551C569.929,728.965 514.774,732.501 496.39,738.158C478.005,743.815 463.863,744.522 443.356,736.036C422.85,727.551 379.717,703.509 428.507,711.288Z" style="fill:rgb(93,39,39);"/>
                            </g>
                            <path d="M436.992,348.541C461.034,335.106 477.298,318.136 514.067,320.257C550.837,322.378 557.201,336.52 593.263,337.935C629.326,339.349 586.192,354.905 550.13,349.248C514.067,343.592 500.632,328.742 463.155,348.541C425.679,368.34 412.951,361.976 436.992,348.541Z" style="fill:rgb(93,39,39);"/>
                        </g>
                    </g>
                </g>
            </g>
        </g>
    </g>
</svg>
