<?xml version="1.0" encoding="UTF-8" standalone="no"?>
<!DOCTYPE svg PUBLIC "-//W3C//DTD SVG 1.1//EN" "http://www.w3.org/Graphics/SVG/1.1/DTD/svg11.dtd">
<svg width="100%" height="100%" viewBox="0 0 1080 1080" version="1.1" xmlns="http://www.w3.org/2000/svg" xmlns:xlink="http://www.w3.org/1999/xlink" xml:space="preserve" xmlns:serif="http://www.serif.com/" style="fill-rule:evenodd;clip-rule:evenodd;stroke-linejoin:round;stroke-miterlimit:2;">
    <g transform="matrix(1.48959,0,0,1.48959,-251.313,-407.577)">
        <g transform="matrix(0.19258,0.419769,-0.419769,0.19258,320.512,406.898)">
            <path d="M468.4,233.672C468.4,266.601 441.666,293.335 408.738,293.335L292.727,293.335C259.799,293.335 233.065,266.601 233.065,233.672C233.065,200.744 259.799,174.01 292.727,174.01L408.738,174.01C441.666,174.01 468.4,200.744 468.4,233.672ZM433.045,233.672C433.045,214.159 417.202,198.317 397.689,198.317L303.776,198.317C284.263,198.317 268.421,214.159 268.421,233.672C268.421,253.186 284.263,269.028 303.776,269.028L397.689,269.028C417.202,269.028 433.045,253.186 433.045,233.672Z" style="fill:rgb(237,217,113);"/>
        </g>
        <g transform="matrix(-0.0671194,0.384097,-0.382839,-0.0668996,468.991,684.544)">
            <path d="M468.4,233.672C468.4,266.601 441.666,293.335 408.738,293.335L292.727,293.335C259.799,293.335 233.065,266.601 233.065,233.672C233.065,200.744 259.799,174.01 292.727,174.01L408.738,174.01C441.666,174.01 468.4,200.744 468.4,233.672ZM433.045,233.672C433.045,214.159 417.202,198.317 397.689,198.317L303.776,198.317C284.263,198.317 268.421,214.159 268.421,233.672C268.421,253.186 284.263,269.028 303.776,269.028L397.689,269.028C417.202,269.028 433.045,253.186 433.045,233.672Z" style="fill:rgb(237,217,113);"/>
        </g>
        <g transform="matrix(0.0395857,0.387902,-0.386632,0.039456,734.333,699.893)">
            <path d="M468.4,233.672C468.4,266.601 441.666,293.335 408.738,293.335L292.727,293.335C259.799,293.335 233.065,266.601 233.065,233.672C233.065,200.744 259.799,174.01 292.727,174.01L408.738,174.01C441.666,174.01 468.4,200.744 468.4,233.672ZM433.045,233.672C433.045,214.159 417.202,198.317 397.689,198.317L303.776,198.317C284.263,198.317 268.421,214.159 268.421,233.672C268.421,253.186 284.263,269.028 303.776,269.028L397.689,269.028C417.202,269.028 433.045,253.186 433.045,233.672Z" style="fill:rgb(237,217,113);"/>
        </g>
        <g transform="matrix(-0.042686,0.387573,-0.386304,-0.0425462,628.675,737.713)">
            <path d="M468.4,233.672C468.4,266.601 441.666,293.335 408.738,293.335L292.727,293.335C259.799,293.335 233.065,266.601 233.065,233.672C233.065,200.744 259.799,174.01 292.727,174.01L408.738,174.01C441.666,174.01 468.4,200.744 468.4,233.672ZM433.045,233.672C433.045,214.159 417.202,198.317 397.689,198.317L303.776,198.317C284.263,198.317 268.421,214.159 268.421,233.672C268.421,253.186 284.263,269.028 303.776,269.028L397.689,269.028C417.202,269.028 433.045,253.186 433.045,233.672Z" style="fill:rgb(237,217,113);"/>
        </g>
        <g transform="matrix(-0.117301,0.292366,-0.330553,-0.132622,480.307,840.366)">
            <path d="M468.4,233.672C468.4,266.601 441.666,293.335 408.738,293.335L292.727,293.335C259.799,293.335 233.065,266.601 233.065,233.672C233.065,200.744 259.799,174.01 292.727,174.01L408.738,174.01C441.666,174.01 468.4,200.744 468.4,233.672ZM433.045,233.672C433.045,214.159 417.202,198.317 397.689,198.317L303.776,198.317C284.263,198.317 268.421,214.159 268.421,233.672C268.421,253.186 284.263,269.028 303.776,269.028L397.689,269.028C417.202,269.028 433.045,253.186 433.045,233.672Z" style="fill:rgb(237,217,113);"/>
        </g>
        <g transform="matrix(0.402696,0.226117,-0.226117,0.402696,296.142,536.206)">
            <path d="M468.4,233.672C468.4,266.601 441.666,293.335 408.738,293.335L292.727,293.335C259.799,293.335 233.065,266.601 233.065,233.672C233.065,200.744 259.799,174.01 292.727,174.01L408.738,174.01C441.666,174.01 468.4,200.744 468.4,233.672ZM433.045,233.672C433.045,214.159 417.202,198.317 397.689,198.317L303.776,198.317C284.263,198.317 268.421,214.159 268.421,233.672C268.421,253.186 284.263,269.028 303.776,269.028L397.689,269.028C417.202,269.028 433.045,253.186 433.045,233.672Z" style="fill:rgb(237,217,113);"/>
        </g>
        <g transform="matrix(0.45901,0.0510141,-0.0510141,0.45901,364.168,643.858)">
            <path d="M468.4,233.672C468.4,266.601 441.666,293.335 408.738,293.335L292.727,293.335C259.799,293.335 233.065,266.601 233.065,233.672C233.065,200.744 259.799,174.01 292.727,174.01L408.738,174.01C441.666,174.01 468.4,200.744 468.4,233.672ZM433.045,233.672C433.045,214.159 417.202,198.317 397.689,198.317L303.776,198.317C284.263,198.317 268.421,214.159 268.421,233.672C268.421,253.186 284.263,269.028 303.776,269.028L397.689,269.028C417.202,269.028 433.045,253.186 433.045,233.672Z" style="fill:rgb(237,217,113);"/>
        </g>
        <g transform="matrix(0.31231,-0.340228,0.340228,0.31231,463.499,787.075)">
            <path d="M468.4,233.672C468.4,266.601 441.666,293.335 408.738,293.335L292.727,293.335C259.799,293.335 233.065,266.601 233.065,233.672C233.065,200.744 259.799,174.01 292.727,174.01L408.738,174.01C441.666,174.01 468.4,200.744 468.4,233.672ZM433.045,233.672C433.045,214.159 417.202,198.317 397.689,198.317L303.776,198.317C284.263,198.317 268.421,214.159 268.421,233.672C268.421,253.186 284.263,269.028 303.776,269.028L397.689,269.028C417.202,269.028 433.045,253.186 433.045,233.672Z" style="fill:rgb(237,217,113);"/>
        </g>
        <g transform="matrix(0.150774,-0.436532,0.436532,0.150774,587.454,742.632)">
            <path d="M468.4,233.672C468.4,266.601 441.666,293.335 408.738,293.335L292.727,293.335C259.799,293.335 233.065,266.601 233.065,233.672C233.065,200.744 259.799,174.01 292.727,174.01L408.738,174.01C441.666,174.01 468.4,200.744 468.4,233.672ZM433.045,233.672C433.045,214.159 417.202,198.317 397.689,198.317L303.776,198.317C284.263,198.317 268.421,214.159 268.421,233.672C268.421,253.186 284.263,269.028 303.776,269.028L397.689,269.028C417.202,269.028 433.045,253.186 433.045,233.672Z" style="fill:rgb(237,217,113);"/>
        </g>
        <g transform="matrix(0.26157,-0.231982,0.262034,0.295455,642.103,532.299)">
            <path d="M468.4,233.672C468.4,266.601 441.666,293.335 408.738,293.335L292.727,293.335C259.799,293.335 233.065,266.601 233.065,233.672C233.065,200.744 259.799,174.01 292.727,174.01L408.738,174.01C441.666,174.01 468.4,200.744 468.4,233.672ZM433.045,233.672C433.045,214.159 417.202,198.317 397.689,198.317L303.776,198.317C284.263,198.317 268.421,214.159 268.421,233.672C268.421,253.186 284.263,269.028 303.776,269.028L397.689,269.028C417.202,269.028 433.045,253.186 433.045,233.672Z" style="fill:rgb(237,217,113);"/>
        </g>
        <g transform="matrix(0.0587639,-0.288564,0.288598,0.0587707,779.06,558.306)">
            <path d="M468.4,233.672C468.4,266.601 441.666,293.335 408.738,293.335L292.727,293.335C259.799,293.335 233.065,266.601 233.065,233.672C233.065,200.744 259.799,174.01 292.727,174.01L408.738,174.01C441.666,174.01 468.4,200.744 468.4,233.672ZM433.045,233.672C433.045,214.159 417.202,198.317 397.689,198.317L303.776,198.317C284.263,198.317 268.421,214.159 268.421,233.672C268.421,253.186 284.263,269.028 303.776,269.028L397.689,269.028C417.202,269.028 433.045,253.186 433.045,233.672Z" style="fill:rgb(237,217,113);"/>
        </g>
        <g transform="matrix(-0.301218,-0.110834,0.101703,-0.276404,893.456,512.121)">
            <path d="M468.4,233.672C468.4,266.601 441.666,293.335 408.738,293.335L292.727,293.335C259.799,293.335 233.065,266.601 233.065,233.672C233.065,200.744 259.799,174.01 292.727,174.01L408.738,174.01C441.666,174.01 468.4,200.744 468.4,233.672ZM433.045,233.672C433.045,214.159 417.202,198.317 397.689,198.317L303.776,198.317C284.263,198.317 268.421,214.159 268.421,233.672C268.421,253.186 284.263,269.028 303.776,269.028L397.689,269.028C417.202,269.028 433.045,253.186 433.045,233.672Z" style="fill:rgb(237,217,113);"/>
        </g>
        <g transform="matrix(-0.317454,-0.0473215,0.0434232,-0.291302,827.916,469.568)">
            <path d="M468.4,233.672C468.4,266.601 441.666,293.335 408.738,293.335L292.727,293.335C259.799,293.335 233.065,266.601 233.065,233.672C233.065,200.744 259.799,174.01 292.727,174.01L408.738,174.01C441.666,174.01 468.4,200.744 468.4,233.672ZM433.045,233.672C433.045,214.159 417.202,198.317 397.689,198.317L303.776,198.317C284.263,198.317 268.421,214.159 268.421,233.672C268.421,253.186 284.263,269.028 303.776,269.028L397.689,269.028C417.202,269.028 433.045,253.186 433.045,233.672Z" style="fill:rgb(237,217,113);"/>
        </g>
        <g transform="matrix(-0.320884,-0.0070648,0.00648281,-0.294449,748.938,447.699)">
            <path d="M468.4,233.672C468.4,266.601 441.666,293.335 408.738,293.335L292.727,293.335C259.799,293.335 233.065,266.601 233.065,233.672C233.065,200.744 259.799,174.01 292.727,174.01L408.738,174.01C441.666,174.01 468.4,200.744 468.4,233.672ZM433.045,233.672C433.045,214.159 417.202,198.317 397.689,198.317L303.776,198.317C284.263,198.317 268.421,214.159 268.421,233.672C268.421,253.186 284.263,269.028 303.776,269.028L397.689,269.028C417.202,269.028 433.045,253.186 433.045,233.672Z" style="fill:rgb(237,217,113);"/>
        </g>
        <g transform="matrix(-0.320961,0.000172988,-0.000158738,-0.294521,657.744,438.954)">
            <path d="M468.4,233.672C468.4,266.601 441.666,293.335 408.738,293.335L292.727,293.335C259.799,293.335 233.065,266.601 233.065,233.672C233.065,200.744 259.799,174.01 292.727,174.01L408.738,174.01C441.666,174.01 468.4,200.744 468.4,233.672ZM433.045,233.672C433.045,214.159 417.202,198.317 397.689,198.317L303.776,198.317C284.263,198.317 268.421,214.159 268.421,233.672C268.421,253.186 284.263,269.028 303.776,269.028L397.689,269.028C417.202,269.028 433.045,253.186 433.045,233.672Z" style="fill:rgb(237,217,113);"/>
        </g>
        <g transform="matrix(-0.31992,0.0258308,-0.0237029,-0.293565,570.674,434.823)">
            <path d="M468.4,233.672C468.4,266.601 441.666,293.335 408.738,293.335L292.727,293.335C259.799,293.335 233.065,266.601 233.065,233.672C233.065,200.744 259.799,174.01 292.727,174.01L408.738,174.01C441.666,174.01 468.4,200.744 468.4,233.672ZM433.045,233.672C433.045,214.159 417.202,198.317 397.689,198.317L303.776,198.317C284.263,198.317 268.421,214.159 268.421,233.672C268.421,253.186 284.263,269.028 303.776,269.028L397.689,269.028C417.202,269.028 433.045,253.186 433.045,233.672Z" style="fill:rgb(237,217,113);"/>
        </g>
        <g transform="matrix(-0.31992,0.0258308,-0.0237029,-0.293565,477.335,439.914)">
            <path d="M468.4,233.672C468.4,266.601 441.666,293.335 408.738,293.335L292.727,293.335C259.799,293.335 233.065,266.601 233.065,233.672C233.065,200.744 259.799,174.01 292.727,174.01L408.738,174.01C441.666,174.01 468.4,200.744 468.4,233.672ZM433.045,233.672C433.045,214.159 417.202,198.317 397.689,198.317L303.776,198.317C284.263,198.317 268.421,214.159 268.421,233.672C268.421,253.186 284.263,269.028 303.776,269.028L397.689,269.028C417.202,269.028 433.045,253.186 433.045,233.672Z" style="fill:rgb(237,217,113);"/>
        </g>
        <g transform="matrix(-0.315168,0.0607083,-0.0557072,-0.289204,396.031,437.976)">
            <path d="M468.4,233.672C468.4,266.601 441.666,293.335 408.738,293.335L292.727,293.335C259.799,293.335 233.065,266.601 233.065,233.672C233.065,200.744 259.799,174.01 292.727,174.01L408.738,174.01C441.666,174.01 468.4,200.744 468.4,233.672ZM433.045,233.672C433.045,214.159 417.202,198.317 397.689,198.317L303.776,198.317C284.263,198.317 268.421,214.159 268.421,233.672C268.421,253.186 284.263,269.028 303.776,269.028L397.689,269.028C417.202,269.028 433.045,253.186 433.045,233.672Z" style="fill:rgb(237,217,113);"/>
        </g>
        <g transform="matrix(-0.137441,0.204382,-0.226951,-0.152618,300.459,396.031)">
            <path d="M468.4,233.672C468.4,266.601 441.666,293.335 408.738,293.335L292.727,293.335C259.799,293.335 233.065,266.601 233.065,233.672C233.065,200.744 259.799,174.01 292.727,174.01L408.738,174.01C441.666,174.01 468.4,200.744 468.4,233.672ZM433.045,233.672C433.045,214.159 417.202,198.317 397.689,198.317L303.776,198.317C284.263,198.317 268.421,214.159 268.421,233.672C268.421,253.186 284.263,269.028 303.776,269.028L397.689,269.028C417.202,269.028 433.045,253.186 433.045,233.672Z" style="fill:rgb(237,217,113);"/>
        </g>
        <g transform="matrix(0.28451,0.109786,-0.130581,0.338401,178.249,373.525)">
            <path d="M468.4,233.672C468.4,266.601 441.666,293.335 408.738,293.335L292.727,293.335C259.799,293.335 233.065,266.601 233.065,233.672C233.065,200.744 259.799,174.01 292.727,174.01L408.738,174.01C441.666,174.01 468.4,200.744 468.4,233.672ZM433.045,233.672C433.045,214.159 417.202,198.317 397.689,198.317L303.776,198.317C284.263,198.317 268.421,214.159 268.421,233.672C268.421,253.186 284.263,269.028 303.776,269.028L397.689,269.028C417.202,269.028 433.045,253.186 433.045,233.672Z" style="fill:rgb(237,217,113);"/>
        </g>
        <g transform="matrix(0.282204,0.365586,-0.182793,0.141102,253.535,456.867)">
            <path d="M576.676,265.713C576.676,232.785 563.309,206.051 546.845,206.051L371.172,206.051C354.708,206.051 341.341,232.785 341.341,265.713C341.341,298.642 354.708,325.376 371.172,325.376L546.845,325.376C563.309,325.376 576.676,298.642 576.676,265.713Z" style="fill:rgb(230,208,93);"/>
        </g>
        <g transform="matrix(-0.0868262,0.341106,-0.223782,-0.0569623,467.135,611.351)">
            <path d="M576.676,265.713C576.676,232.785 559.137,206.051 537.535,206.051L380.483,206.051C358.88,206.051 341.341,232.785 341.341,265.713C341.341,298.642 358.88,325.376 380.483,325.376L537.535,325.376C559.137,325.376 576.676,298.642 576.676,265.713Z" style="fill:rgb(230,208,93);"/>
        </g>
        <g transform="matrix(0.0796954,0.342842,-0.224921,0.0522841,384.327,692.785)">
            <path d="M576.676,265.713C576.676,232.785 559.137,206.051 537.535,206.051L380.483,206.051C358.88,206.051 341.341,232.785 341.341,265.713C341.341,298.642 358.88,325.376 380.483,325.376L537.535,325.376C559.137,325.376 576.676,298.642 576.676,265.713Z" style="fill:rgb(230,208,93);"/>
        </g>
        <g transform="matrix(0.0118104,0.351785,-0.230788,0.00774823,710.026,627.825)">
            <path d="M576.676,265.713C576.676,232.785 559.137,206.051 537.535,206.051L380.483,206.051C358.88,206.051 341.341,232.785 341.341,265.713C341.341,298.642 358.88,325.376 380.483,325.376L537.535,325.376C559.137,325.376 576.676,298.642 576.676,265.713Z" style="fill:rgb(230,208,93);"/>
        </g>
        <g transform="matrix(-0.0366943,0.325572,-0.211655,-0.023855,728.69,753.579)">
            <path d="M576.676,265.713C576.676,232.785 559.296,206.051 537.89,206.051L380.128,206.051C358.721,206.051 341.341,232.785 341.341,265.713C341.341,298.642 358.721,325.376 380.128,325.376L537.89,325.376C559.296,325.376 576.676,298.642 576.676,265.713Z" style="fill:rgb(230,208,93);"/>
        </g>
        <g transform="matrix(0.00994547,0.327482,-0.212897,0.00646557,577.81,661.201)">
            <path d="M576.676,265.713C576.676,232.785 559.296,206.051 537.89,206.051L380.128,206.051C358.721,206.051 341.341,232.785 341.341,265.713C341.341,298.642 358.721,325.376 380.128,325.376L537.89,325.376C559.296,325.376 576.676,298.642 576.676,265.713Z" style="fill:rgb(230,208,93);"/>
        </g>
        <g transform="matrix(0.409369,0.213799,-0.106899,0.204684,287.429,590.962)">
            <path d="M576.676,265.713C576.676,232.785 563.309,206.051 546.845,206.051L371.172,206.051C354.708,206.051 341.341,232.785 341.341,265.713C341.341,298.642 354.708,325.376 371.172,325.376L546.845,325.376C563.309,325.376 576.676,298.642 576.676,265.713Z" style="fill:rgb(230,208,93);"/>
        </g>
        <g transform="matrix(0.457503,-0.0631164,0.0315582,0.228751,368.553,735.008)">
            <path d="M576.676,265.713C576.676,232.785 563.309,206.051 546.845,206.051L371.172,206.051C354.708,206.051 341.341,232.785 341.341,265.713C341.341,298.642 354.708,325.376 371.172,325.376L546.845,325.376C563.309,325.376 576.676,298.642 576.676,265.713Z" style="fill:rgb(230,208,93);"/>
        </g>
        <g transform="matrix(0.299958,-0.351166,0.175583,0.149979,517.857,804.01)">
            <path d="M576.676,265.713C576.676,232.785 563.309,206.051 546.845,206.051L371.172,206.051C354.708,206.051 341.341,232.785 341.341,265.713C341.341,298.642 354.708,325.376 371.172,325.376L546.845,325.376C563.309,325.376 576.676,298.642 576.676,265.713Z" style="fill:rgb(230,208,93);"/>
        </g>
        <g transform="matrix(0.141564,-0.334703,0.212677,0.0899527,642.75,693.05)">
            <path d="M576.676,265.713C576.676,232.785 559.689,206.051 538.765,206.051L379.252,206.051C358.328,206.051 341.341,232.785 341.341,265.713C341.341,298.642 358.328,325.376 379.252,325.376L538.765,325.376C559.689,325.376 576.676,298.642 576.676,265.713Z" style="fill:rgb(230,208,93);"/>
        </g>
        <g transform="matrix(0.296175,-0.107052,0.066243,0.18327,681.529,496.361)">
            <path d="M576.676,265.713C576.676,232.785 560.134,206.051 539.758,206.051L378.26,206.051C357.884,206.051 341.341,232.785 341.341,265.713C341.341,298.642 357.884,325.376 378.26,325.376L539.758,325.376C560.134,325.376 576.676,298.642 576.676,265.713Z" style="fill:rgb(230,208,93);"/>
        </g>
        <g transform="matrix(-0.2003,-0.195541,0.118342,-0.121222,911.674,555.262)">
            <path d="M576.676,265.713C576.676,232.785 560.497,206.051 540.568,206.051L377.449,206.051C357.521,206.051 341.341,232.785 341.341,265.713C341.341,298.642 357.521,325.376 377.449,325.376L540.568,325.376C560.497,325.376 576.676,298.642 576.676,265.713Z" style="fill:rgb(230,208,93);"/>
        </g>
        <g transform="matrix(-0.265017,-0.0901249,0.0545438,-0.160389,875.741,478.816)">
            <path d="M576.676,265.713C576.676,232.785 560.497,206.051 540.568,206.051L377.449,206.051C357.521,206.051 341.341,232.785 341.341,265.713C341.341,298.642 357.521,325.376 377.449,325.376L540.568,325.376C560.497,325.376 576.676,298.642 576.676,265.713Z" style="fill:rgb(230,208,93);"/>
        </g>
        <g transform="matrix(-0.278393,-0.0292186,0.0176832,-0.168484,804.559,436.605)">
            <path d="M576.676,265.713C576.676,232.785 560.497,206.051 540.568,206.051L377.449,206.051C357.521,206.051 341.341,232.785 341.341,265.713C341.341,298.642 357.521,325.376 377.449,325.376L540.568,325.376C560.497,325.376 576.676,298.642 576.676,265.713Z" style="fill:rgb(230,208,93);"/>
        </g>
        <g transform="matrix(-0.279911,0.00250121,-0.00151374,-0.169403,534.867,421.158)">
            <path d="M576.676,265.713C576.676,232.785 560.497,206.051 540.568,206.051L377.449,206.051C357.521,206.051 341.341,232.785 341.341,265.713C341.341,298.642 357.521,325.376 377.449,325.376L540.568,325.376C560.497,325.376 576.676,298.642 576.676,265.713Z" style="fill:rgb(230,208,93);"/>
        </g>
        <g transform="matrix(-0.279708,0.0109556,-0.00663036,-0.16928,626.643,413.285)">
            <path d="M576.676,265.713C576.676,232.785 560.497,206.051 540.568,206.051L377.449,206.051C357.521,206.051 341.341,232.785 341.341,265.713C341.341,298.642 357.521,325.376 377.449,325.376L540.568,325.376C560.497,325.376 576.676,298.642 576.676,265.713Z" style="fill:rgb(230,208,93);"/>
        </g>
        <g transform="matrix(-0.278336,-0.0297573,0.0180092,-0.16845,713.936,432.318)">
            <path d="M576.676,265.713C576.676,232.785 560.497,206.051 540.568,206.051L377.449,206.051C357.521,206.051 341.341,232.785 341.341,265.713C341.341,298.642 357.521,325.376 377.449,325.376L540.568,325.376C560.497,325.376 576.676,298.642 576.676,265.713Z" style="fill:rgb(230,208,93);"/>
        </g>
        <g transform="matrix(-0.278876,0.0241749,-0.0146307,-0.168777,447.933,418.963)">
            <path d="M576.676,265.713C576.676,232.785 560.497,206.051 540.568,206.051L377.449,206.051C357.521,206.051 341.341,232.785 341.341,265.713C341.341,298.642 357.521,325.376 377.449,325.376L540.568,325.376C560.497,325.376 576.676,298.642 576.676,265.713Z" style="fill:rgb(230,208,93);"/>
        </g>
        <g transform="matrix(-0.248007,0.129804,-0.0785574,-0.150094,364.2,387.576)">
            <path d="M576.676,265.713C576.676,232.785 560.497,206.051 540.568,206.051L377.449,206.051C357.521,206.051 341.341,232.785 341.341,265.713C341.341,298.642 357.521,325.376 377.449,325.376L540.568,325.376C560.497,325.376 576.676,298.642 576.676,265.713Z" style="fill:rgb(230,208,93);"/>
        </g>
        <g transform="matrix(0.18087,0.203856,-0.142039,0.126024,169.141,335.815)">
            <path d="M576.676,265.713C576.676,232.785 558.049,206.051 535.106,206.051L382.912,206.051C359.968,206.051 341.341,232.785 341.341,265.713C341.341,298.642 359.968,325.376 382.912,325.376L535.106,325.376C558.049,325.376 576.676,298.642 576.676,265.713Z" style="fill:rgb(230,208,93);"/>
        </g>
        <g transform="matrix(0.0636259,0.354282,-0.211978,0.0380694,292.374,356.563)">
            <path d="M576.676,265.713C576.676,232.785 560.68,206.051 540.978,206.051L377.039,206.051C357.337,206.051 341.341,232.785 341.341,265.713C341.341,298.642 357.337,325.376 377.039,325.376L540.978,325.376C560.68,325.376 576.676,298.642 576.676,265.713Z" style="fill:rgb(230,208,93);"/>
        </g>
    </g>
</svg>
